<svg xmlns="http://www.w3.org/2000/svg" viewBox="0 0 506.6 512"><style type="text/css">  
	.st0{fill:#FFFFFF;}
</style><path class="st0" d="M298.3 230c-25.8-41.7-24.5-88.7 21-124.5 27.4-21.5 55.4-30.6 92-27.4 48.6 4.3 87 44.2 94.5 80 -3.7-37.8-19.9-74.6-48.8-103.5 -66.5-66.5-174.8-66.5-241.3 0 -59.1 59.1-61.8 145.8-7.4 232.1 15.5 24.6 27.3 74.4 0.3 106.7 -26.2 31.3-64.5 49.4-113.4 45.2 -47.9-4.2-86.2-43.6-94.4-79 3.9 37.4 20.1 73.8 48.8 102.5 66.5 66.5 174.8 66.5 241.3 0C350 403.1 357.2 325 298.3 230z"/><path class="st0" d="M465.2 287c29.4-33.9 43.1-76.6 41.4-118.8 -14.2-30.3-47.8-59-88.5-62.5 -23.1-2-42.6 1.2-60.8 9 9 3.1 17.5 8.1 24.6 15.3 22.1 22.1 33.6 65.4 16.7 90.4l-34.5-34.5 0 127.9 127.9 0L465.2 287z"/><path class="st0" d="M87.1 411.6c23.6 2.1 43.4-1.3 62-9.5 -8.9-3.1-17.2-8.1-24.3-15.2 -22.1-22.1-24.7-56.5-7.7-81.5l25.5 25.5 0-127.9 -127.9 0 26.8 26.8c-30.3 34.9-44 79.3-41.2 122.8C15.6 381.5 48.2 408.2 87.1 411.6z"/></svg>