<?xml version="1.0" encoding="utf-8"?>
<!-- Generator: Adobe Illustrator 24.1.2, SVG Export Plug-In . SVG Version: 6.00 Build 0)  -->
<svg version="1.1" id="Layer_1" xmlns="http://www.w3.org/2000/svg" xmlns:xlink="http://www.w3.org/1999/xlink" x="0px" y="0px"
	 viewBox="0 0 506.6 512" style="enable-background:new 0 0 506.6 512;" xml:space="preserve">
<style type="text/css">
	.st0{fill:url(#SVGID_1_);}
	.st1{fill:url(#SVGID_2_);}
	.st2{fill:url(#SVGID_3_);}
</style>
<g>
	<linearGradient id="SVGID_1_" gradientUnits="userSpaceOnUse" x1="2.0576" y1="255.3733" x2="505.7429" y2="255.3733">
		<stop  offset="0" style="stop-color:#8593C7"/>
		<stop  offset="1" style="stop-color:#5364AB"/>
	</linearGradient>
	<path class="st0" d="M298.7,227.1c-25.8-41.6-24.5-88.5,21-124.1c27.3-21.4,55.2-30.5,91.8-27.3c48.4,4.2,86.8,44.1,94.3,79.8
		C502,117.7,485.9,81,457,52.2c-66.4-66.4-174.3-66.4-240.7,0c-58.9,58.9-61.7,145.4-7.3,231.5c15.5,24.5,27.2,74.2,0.3,106.4
		c-26.1,31.2-64.4,49.3-113.1,45c-47.8-4.2-86-43.5-94.2-78.8c3.9,37.4,20,73.6,48.6,102.2c66.4,66.4,174.3,66.4,240.7,0
		C350.3,399.6,357.5,321.8,298.7,227.1z"/>
	<g>
		<g>
			<linearGradient id="SVGID_2_" gradientUnits="userSpaceOnUse" x1="341.2725" y1="294.6833" x2="490.5827" y2="145.3731">
				<stop  offset="0" style="stop-color:#5364AB"/>
				<stop  offset="1" style="stop-color:#8593C7"/>
			</linearGradient>
			<path class="st1" d="M465.2,283.9c29.3-33.8,43-76.4,41.2-118.5c-14.2-30.2-47.6-58.8-88.2-62.4c-23.1-2-42.5,1.2-60.7,9
				c9,3.1,17.4,8.1,24.6,15.2c22.1,22.1,33.5,65.3,16.6,90.2L364.3,183l0,127.5l127.5,0L465.2,283.9z"/>
		</g>
		<g>
			<linearGradient id="SVGID_3_" gradientUnits="userSpaceOnUse" x1="-52.8288" y1="435.1208" x2="153.7312" y2="228.5608">
				<stop  offset="0" style="stop-color:#5364AB"/>
				<stop  offset="1" style="stop-color:#8593C7"/>
			</linearGradient>
			<path class="st2" d="M88.1,408.2c23.6,2.1,43.3-1.3,61.9-9.5c-8.9-3.1-17.2-8.1-24.2-15.1c-22.1-22.1-24.6-56.3-7.7-81.3
				l25.4,25.4l0-127.5l-127.5,0l26.7,26.7C12.3,261.7-1.3,306,1.5,349.4C16.7,378.2,49.2,404.8,88.1,408.2z"/>
		</g>
	</g>
</g>
</svg>
